<svg width="27" height="27" viewBox="0 0 27 27" fill="none" xmlns="http://www.w3.org/2000/svg">
<path d="M18.0716 9.33008C18.0716 9.21406 17.9767 9.11914 17.8607 9.11914L16.1205 9.12705L13.4996 12.2516L10.8813 9.12969L9.13843 9.12178C9.02241 9.12178 8.92749 9.21406 8.92749 9.33272C8.92749 9.38281 8.94595 9.43027 8.97759 9.46982L12.408 13.5567L8.97759 17.641C8.94573 17.6797 8.92805 17.728 8.92749 17.7781C8.92749 17.8941 9.02241 17.9891 9.13843 17.9891L10.8813 17.9812L13.4996 14.8566L16.1178 17.9785L17.8581 17.9864C17.9741 17.9864 18.069 17.8941 18.069 17.7755C18.069 17.7254 18.0505 17.6779 18.0189 17.6384L14.5938 13.5541L18.0242 9.46719C18.0558 9.43027 18.0716 9.38018 18.0716 9.33008Z" fill="#FF414D"/>
<path d="M13.5 1.6875C6.97676 1.6875 1.6875 6.97676 1.6875 13.5C1.6875 20.0232 6.97676 25.3125 13.5 25.3125C20.0232 25.3125 25.3125 20.0232 25.3125 13.5C25.3125 6.97676 20.0232 1.6875 13.5 1.6875ZM13.5 23.3086C8.08418 23.3086 3.69141 18.9158 3.69141 13.5C3.69141 8.08418 8.08418 3.69141 13.5 3.69141C18.9158 3.69141 23.3086 8.08418 23.3086 13.5C23.3086 18.9158 18.9158 23.3086 13.5 23.3086Z" fill="#FF414D"/>
</svg>
