<svg width="27" height="27" viewBox="0 0 27 27" fill="none" xmlns="http://www.w3.org/2000/svg">
<path d="M13.5 1.6875C6.97676 1.6875 1.6875 6.97676 1.6875 13.5C1.6875 20.0232 6.97676 25.3125 13.5 25.3125C20.0232 25.3125 25.3125 20.0232 25.3125 13.5C25.3125 6.97676 20.0232 1.6875 13.5 1.6875ZM13.5 23.3086C8.08418 23.3086 3.69141 18.9158 3.69141 13.5C3.69141 8.08418 8.08418 3.69141 13.5 3.69141C18.9158 3.69141 23.3086 8.08418 23.3086 13.5C23.3086 18.9158 18.9158 23.3086 13.5 23.3086Z" fill="#FF8200"/>
<path d="M16.4421 8.34951C15.6511 7.65606 14.6069 7.27637 13.4995 7.27637C12.3921 7.27637 11.3479 7.65869 10.5569 8.34951C9.73428 9.06934 9.28076 10.037 9.28076 11.0732V11.2736C9.28076 11.3896 9.37568 11.4846 9.4917 11.4846H10.7573C10.8733 11.4846 10.9683 11.3896 10.9683 11.2736V11.0732C10.9683 9.91045 12.1047 8.96387 13.4995 8.96387C14.8943 8.96387 16.0308 9.91045 16.0308 11.0732C16.0308 11.8933 15.4507 12.6447 14.5516 12.9901C13.9926 13.2037 13.518 13.5781 13.1778 14.0686C12.8324 14.5695 12.6531 15.1707 12.6531 15.7798V16.3467C12.6531 16.4627 12.748 16.5576 12.8641 16.5576H14.1297C14.2457 16.5576 14.3406 16.4627 14.3406 16.3467V15.7481C14.342 15.4922 14.4205 15.2426 14.5658 15.0318C14.7111 14.8211 14.9166 14.6591 15.1554 14.5669C16.711 13.9684 17.7156 12.5973 17.7156 11.0732C17.7183 10.037 17.2647 9.06934 16.4421 8.34951ZM12.4448 19.2998C12.4448 19.5795 12.5559 19.8478 12.7537 20.0456C12.9515 20.2434 13.2198 20.3545 13.4995 20.3545C13.7792 20.3545 14.0475 20.2434 14.2453 20.0456C14.4431 19.8478 14.5542 19.5795 14.5542 19.2998C14.5542 19.0201 14.4431 18.7518 14.2453 18.554C14.0475 18.3562 13.7792 18.2451 13.4995 18.2451C13.2198 18.2451 12.9515 18.3562 12.7537 18.554C12.5559 18.7518 12.4448 19.0201 12.4448 19.2998Z" fill="#FF8200"/>
</svg>
